<?xml version="1.0" encoding="utf-8"?>
<!-- Generator: Adobe Illustrator 21.1.0, SVG Export Plug-In . SVG Version: 6.00 Build 0)  -->
<svg version="1.1" id="Layer_1" xmlns="http://www.w3.org/2000/svg" xmlns:xlink="http://www.w3.org/1999/xlink" x="0px" y="0px"
	 viewBox="0 0 1360.4 810.1" style="enable-background:new 0 0 1360.4 810.1;" xml:space="preserve">
<style type="text/css">
	.st0{fill:#FEC111;}
	.st1{fill:#FCC015;}
	.st2{fill:#FFFFFF;}
	.st3{font-family:'Campton-Light';}
	.st4{font-size:113.478px;}
	.st5{letter-spacing:34;}
</style>
<g>
	<g>
		<g id="XMLID_2_">
			<g>
				<path class="st0" d="M545.3,331.9c-5.6,6.1-10.8,12.1-15.6,19c-28.1-30.7-70.6-48.9-121.6-48.9h-93.9v308.2h93.9
					c50.6,0,93.1-18.2,121.2-49.3c4.8,6.9,9.5,13,15.2,19c-32.5,33.3-79.7,52.8-136.4,52.8H289.5V279.5h118.6
					C465.2,279.5,512.4,299,545.3,331.9z"/>
			</g>
			<g>
			</g>
		</g>
	</g>
</g>
<g>
	<path class="st0" d="M268.1,632.7h-24.4v-353h24.4V632.7z"/>
</g>
<g id="XMLID_1_">
	<g>
		<path class="st0" d="M1322.2,198.3c-5.2,8.7-10.4,17.3-15.6,25.5c-16.9,7.4-32.5,16.9-47.2,28.1c17.7-19.5,33.8-41.6,47.6-65.8
			L1322.2,198.3z"/>
		<path class="st0" d="M1306.6,223.8c-11.3,16.9-23.4,32.5-37.2,47.2c-16.9,12.6-32.9,26.8-49.8,41.6c-6.5,5.6-13,11.3-19.9,16.9
			c-19.5,12.6-39.8,23.4-61.5,32c-39.4,16-81.4,24.7-123.4,25.1c-37.2,0.9-74.5-5.2-110-18.6c-20.8-7.8-40.7-17.3-59.7-26.8
			c-2.2-3-5.2-6.1-8.2-9.1c3.5,1.3,6.9,3,10.4,4.8c21.2,10.8,42.9,21.6,64.9,29.9c70.1,26,142.4,25.5,198.7-1.3
			c27.3-13,51.9-32.5,75.3-52.8c28.1-16.9,52.4-37.2,73.2-60.6C1274.1,240.7,1289.7,231.2,1306.6,223.8z"/>
		<path class="st0" d="M1269.4,271c-7.8,8.7-16,16.9-25.1,24.7c-14.3,12.6-29,23.8-44.6,33.8c6.9-5.6,13.4-11.3,19.9-16.9
			C1236.5,297.9,1252.5,283.6,1269.4,271z"/>
		<path class="st0" d="M1178,317.8c3-1.7,5.6-3.5,8.2-5.2c-23.4,20.3-48,39.8-75.3,52.8c-56.3,26.8-128.6,27.3-198.7,1.3
			c-22.1-8.2-43.7-19-64.9-29.9c-3.5-1.7-6.9-3.5-10.4-4.8c-19.5-21.6-45-39-73.2-48.9c12.1,3,24.2,7.4,36.8,13
			c16,6.9,31.2,14.3,46.8,22.1c21.2,10.4,42.9,21.2,64.9,29.4C998.8,380.1,1099.7,363.2,1178,317.8z"/>
		<path class="st0" d="M863.3,368.8c14.3,26,22.1,55.8,22.1,87.4c0,101.7-82.2,183.5-184,183.5s-184-81.8-184-183.5
			s82.2-184,184-184c22.1,0,42.9,3.9,62.3,10.8c-34.2-10.4-66.2-12.1-95.7-6.5l3.5,18.2c-1.3,0-2.2,0-3.5,0.4l0.9,3.5
			c-73.2,15.2-126.8,80.1-126.8,157.6c0,88.7,70.6,161,159.3,161s159.3-72.3,159.3-161c0-41.6-15.6-80.1-41.6-108.7
			c6.5,2.6,12.6,5.6,18.6,8.7c8.2,4.3,16.9,8.2,25.5,12.1V368.8z"/>
		<path class="st0" d="M845.1,341.1c-2.6-1.3-4.8-2.2-7.4-3.5c-15.2-7.4-30.3-15.2-45.9-21.6c-25.5-10.8-49.8-17.7-72.7-19.9
			c-5.6-0.4-11.7-0.9-17.7-0.9c-6.9,0-13.9,0.4-20.8,1.7c-3,0-6.1,0.4-8.7,0.9l-0.4-3c39-6.9,82.2-0.4,129,20.3
			c12.6,5.2,24.2,10.8,36.4,16.9C839.9,335.1,843,338.1,845.1,341.1z"/>
		<path class="st0" d="M763.8,283.1c28.1,10,53.7,27.3,73.2,48.9c-12.1-6.1-23.8-11.7-36.4-16.9c-46.8-20.8-90-27.3-129-20.3
			l-3.5-18.2C697.5,271,729.6,272.7,763.8,283.1z"/>
		<path class="st0" d="M672,297.9c2.6-0.4,5.6-0.9,8.7-0.9c-3.9,0-7.8,0.9-11.7,1.7l-0.9-3.5c1.3-0.4,2.2-0.4,3.5-0.4L672,297.9z"/>
	</g>
	<g>
	</g>
</g>
<g>
	<path class="st1" d="M220.6,281.5v20.2h-97.1v331.9h-23.4V301.7H29.5v-20.2h70.6V116c0-49.8,31.7-83.1,78.4-83.1
		c12.4,0,29,2.1,45.7,6.7l-4.1,19.7c-13-2.6-27.5-4.7-38.4-4.7c-35.3,0-58.1,24.4-58.1,61.3v165.5H220.6z"/>
</g>
<g>
	<path class="st2" d="M202.6,164.1H262v20.5h-59.4v48.3h-22.1V107.6h89.6V128h-67.5V164.1z"/>
	<path class="st2" d="M303.3,232.9h-22.1V107.6h22.1V232.9z"/>
	<path class="st2" d="M434.9,232.9h-17.3l-71.4-84.4v84.4h-22.1V107.6H341L413,194v-86.4h21.9V232.9z"/>
	<path class="st2" d="M502.7,107.6c38.5,0,66.9,26.4,66.9,62.1c0,36.3-28.4,63.2-66.9,63.2h-47V107.6H502.7z M502.7,212.4
		c25.1,0,44.2-18.6,44.2-42.8c0-23.6-19.1-41.6-44.2-41.6h-24.9v84.4H502.7z"/>
	<path class="st2" d="M606.9,232.9h-22.1V107.6h22.1V232.9z"/>
	<path class="st2" d="M738.5,232.9h-17.3l-71.4-84.4v84.4h-22.1V107.6h16.8l72.1,86.4v-86.4h21.9V232.9z"/>
	<path class="st2" d="M883.5,232.9h-17.3l-1.5-19.9c-8.8,13.8-23.4,22.5-44,22.5c-37.6,0-65.1-29.1-65.1-63.6
		c0-39.4,29.5-66.9,66-66.9c26.9,0,53.1,14.9,60.6,45.7h-23.6c-6.6-19-23.4-24.5-36.7-24.5c-25.3,0-43.9,17.9-43.9,45.7
		c0,22.7,16.8,42.2,42.6,42.2c20.6,0,33.9-12.3,38.5-29.5h-40.2v-20.5h64.5v6.1V232.9z"/>
</g>
<text transform="matrix(1 0 0 1 86.1164 761.2837)" class="st2 st3 st4 st5">+FRIENDS</text>
</svg>
