<?xml version="1.0" encoding="utf-8"?>
<!-- Generator: Adobe Illustrator 21.1.0, SVG Export Plug-In . SVG Version: 6.00 Build 0)  -->
<svg version="1.1" id="Layer_1" xmlns="http://www.w3.org/2000/svg" xmlns:xlink="http://www.w3.org/1999/xlink" x="0px" y="0px"
	 viewBox="0 0 1781.4 810.1" style="enable-background:new 0 0 1781.4 810.1;" xml:space="preserve">
<style type="text/css">
	.st0{fill:#FEC111;}
	.st1{fill:#FCC015;}
	.st2{fill:#FFFFFF;}
</style>
<g>
	<g>
		<g id="XMLID_11_">
			<g>
				<path class="st0" d="M988.6,331.9c-5.6,6.1-10.8,12.1-15.6,19c-28.1-30.7-70.6-48.9-121.6-48.9h-93.9v308.2h93.9
					c50.6,0,93.1-18.2,121.2-49.3c4.8,6.9,9.5,13,15.2,19c-32.5,33.3-79.7,52.8-136.4,52.8H732.8V279.5h118.6
					C908.6,279.5,955.7,299,988.6,331.9z"/>
			</g>
			<g>
			</g>
		</g>
	</g>
</g>
<g>
	<path class="st0" d="M711.4,632.7h-24.4v-353h24.4V632.7z"/>
</g>
<g id="XMLID_10_">
	<g>
		<path class="st0" d="M1765.5,198.3c-5.2,8.7-10.4,17.3-15.6,25.5c-16.9,7.4-32.5,16.9-47.2,28.1c17.7-19.5,33.8-41.6,47.6-65.8
			L1765.5,198.3z"/>
		<path class="st0" d="M1749.9,223.8c-11.3,16.9-23.4,32.5-37.2,47.2c-16.9,12.6-32.9,26.8-49.8,41.6c-6.5,5.6-13,11.3-19.9,16.9
			c-19.5,12.6-39.8,23.4-61.5,32c-39.4,16-81.4,24.7-123.4,25.1c-37.2,0.9-74.5-5.2-110-18.6c-20.8-7.8-40.7-17.3-59.7-26.8
			c-2.2-3-5.2-6.1-8.2-9.1c3.5,1.3,6.9,3,10.4,4.8c21.2,10.8,42.9,21.6,64.9,29.9c70.1,26,142.4,25.5,198.7-1.3
			c27.3-13,51.9-32.5,75.3-52.8c28.1-16.9,52.4-37.2,73.2-60.6C1717.4,240.7,1733,231.2,1749.9,223.8z"/>
		<path class="st0" d="M1712.7,271c-7.8,8.7-16,16.9-25.1,24.7c-14.3,12.6-29,23.8-44.6,33.8c6.9-5.6,13.4-11.3,19.9-16.9
			C1679.8,297.9,1695.8,283.6,1712.7,271z"/>
		<path class="st0" d="M1621.3,317.8c3-1.7,5.6-3.5,8.2-5.2c-23.4,20.3-48,39.8-75.3,52.8c-56.3,26.8-128.6,27.3-198.7,1.3
			c-22.1-8.2-43.7-19-64.9-29.9c-3.5-1.7-6.9-3.5-10.4-4.8c-19.5-21.6-45-39-73.2-48.9c12.1,3,24.2,7.4,36.8,13
			c16,6.9,31.2,14.3,46.8,22.1c21.2,10.4,42.9,21.2,64.9,29.4C1442.1,380.1,1543,363.2,1621.3,317.8z"/>
		<path class="st0" d="M1306.6,368.8c14.3,26,22.1,55.8,22.1,87.4c0,101.7-82.2,183.5-184,183.5s-184-81.8-184-183.5
			s82.2-184,184-184c22.1,0,42.9,3.9,62.3,10.8c-34.2-10.4-66.2-12.1-95.7-6.5l3.5,18.2c-1.3,0-2.2,0-3.5,0.4l0.9,3.5
			c-73.2,15.2-126.8,80.1-126.8,157.6c0,88.7,70.6,161,159.3,161S1304,545,1304,456.3c0-41.6-15.6-80.1-41.6-108.7
			c6.5,2.6,12.6,5.6,18.6,8.7c8.2,4.3,16.9,8.2,25.5,12.1V368.8z"/>
		<path class="st0" d="M1288.5,341.1c-2.6-1.3-4.8-2.2-7.4-3.5c-15.2-7.4-30.3-15.2-45.9-21.6c-25.5-10.8-49.8-17.7-72.7-19.9
			c-5.6-0.4-11.7-0.9-17.7-0.9c-6.9,0-13.9,0.4-20.8,1.7c-3,0-6.1,0.4-8.7,0.9l-0.4-3c39-6.9,82.2-0.4,129,20.3
			c12.6,5.2,24.2,10.8,36.4,16.9C1283.3,335.1,1286.3,338.1,1288.5,341.1z"/>
		<path class="st0" d="M1207.1,283.1c28.1,10,53.7,27.3,73.2,48.9c-12.1-6.1-23.8-11.7-36.4-16.9c-46.8-20.8-90-27.3-129-20.3
			l-3.5-18.2C1140.8,271,1172.9,272.7,1207.1,283.1z"/>
		<path class="st0" d="M1115.3,297.9c2.6-0.4,5.6-0.9,8.7-0.9c-3.9,0-7.8,0.9-11.7,1.7l-0.9-3.5c1.3-0.4,2.2-0.4,3.5-0.4
			L1115.3,297.9z"/>
	</g>
	<g>
	</g>
</g>
<g>
	<path class="st1" d="M663.9,281.5v20.2h-97.1v331.9h-23.4V301.7h-70.6v-20.2h70.6V116c0-49.8,31.7-83.1,78.4-83.1
		c12.4,0,29,2.1,45.7,6.7l-4.1,19.7c-13-2.6-27.5-4.7-38.4-4.7c-35.3,0-58.1,24.4-58.1,61.3v165.5H663.9z"/>
</g>
<g>
	<path class="st2" d="M645.9,164.1h59.4v20.5h-59.4v48.3h-22.1V107.6h89.6V128h-67.5V164.1z"/>
	<path class="st2" d="M746.7,232.9h-22.1V107.6h22.1V232.9z"/>
	<path class="st2" d="M878.2,232.9H861l-71.4-84.4v84.4h-22.1V107.6h16.8l72.1,86.4v-86.4h21.9V232.9z"/>
	<path class="st2" d="M946,107.6c38.5,0,66.9,26.4,66.9,62.1c0,36.3-28.4,63.2-66.9,63.2h-47V107.6H946z M946,212.4
		c25.1,0,44.2-18.6,44.2-42.8c0-23.6-19.1-41.6-44.2-41.6h-24.9v84.4H946z"/>
	<path class="st2" d="M1050.2,232.9h-22.1V107.6h22.1V232.9z"/>
	<path class="st2" d="M1181.8,232.9h-17.3l-71.4-84.4v84.4H1071V107.6h16.8l72.1,86.4v-86.4h21.9V232.9z"/>
	<path class="st2" d="M1326.8,232.9h-17.3L1308,213c-8.8,13.8-23.4,22.5-44,22.5c-37.6,0-65.1-29.1-65.1-63.6
		c0-39.4,29.5-66.9,66-66.9c26.9,0,53.1,14.9,60.6,45.7h-23.6c-6.6-19-23.4-24.5-36.7-24.5c-25.3,0-43.9,17.9-43.9,45.7
		c0,22.7,16.8,42.2,42.6,42.2c20.6,0,33.9-12.3,38.5-29.5h-40.2v-20.5h64.5v6.1V232.9z"/>
</g>
<g>
	<path class="st2" d="M572.7,750.3h-7.6v-22h-22.4V721h22.4v-22h7.6v22h22.2v7.3h-22.2V750.3z"/>
	<path class="st2" d="M661.1,721.1h39.7v7.5h-39.7v32.7H653v-77.2h52.7v7.4h-44.6V721.1z"/>
	<path class="st2" d="M762.9,733.3v28h-8.1v-77.2h28.7c17.2,0,29.4,9.4,29.4,24.6c0,12.4-8.2,21-20.7,23.6l23.9,28.9h-10.1l-23.1-28
		H762.9z M783.3,725.9c12.6,0,21.6-6.5,21.6-17.1c0-10.8-9-17.2-21.6-17.2h-20.4v34.4H783.3z"/>
	<path class="st2" d="M872.2,761.3h-8.1v-77.2h8.1V761.3z"/>
	<path class="st2" d="M936,719.2h41v7.5h-41v27.2h45.5v7.4H928v-77.2h53.6v7.4H936V719.2z"/>
	<path class="st2" d="M1099.1,761.3h-6.9l-50.4-62.5v62.5h-8.1v-77.2h6.6l50.7,63.3v-63.3h8.1V761.3z"/>
	<path class="st2" d="M1181.7,684.1c23.8,0,40.6,15.8,40.6,38c0,23-16.8,39.2-40.6,39.2h-26.8v-77.2H1181.7z M1181.7,753.9
		c19,0,32.3-13.2,32.3-31.8c0-17.8-13.4-30.6-32.3-30.6H1163v62.4H1181.7z"/>
	<path class="st2" d="M1329.8,705h-7.9c-1.8-9.4-8.6-15.5-21.7-15.5c-11.7,0-19.4,5.7-19.4,14.6c0,7,5.7,11.3,15.9,13.2l11.7,2.3
		c13.6,2.6,21.4,9.1,21.4,20.1c0,14.1-11.5,23.4-28.7,23.4c-18.5,0-30.3-9.6-32.1-26.3h7.9c1.9,12,10.3,19.1,24.5,19.1
		c12.3,0,20.1-6,20.1-15.2c0-6.5-4.4-11.3-14.5-13.2l-13.4-2.6c-14.2-2.6-21.3-9.8-21.3-20.2c0-13.3,11-22.1,27.5-22.1
		C1315.3,682.4,1327.9,689.8,1329.8,705z"/>
</g>
</svg>
