<?xml version="1.0" encoding="utf-8"?>
<!-- Generator: Adobe Illustrator 21.1.0, SVG Export Plug-In . SVG Version: 6.00 Build 0)  -->
<svg version="1.1" id="Layer_1" xmlns="http://www.w3.org/2000/svg" xmlns:xlink="http://www.w3.org/1999/xlink" x="0px" y="0px"
	 viewBox="0 0 1223.1 313.6" style="enable-background:new 0 0 1223.1 313.6;" xml:space="preserve">
<style type="text/css">
	.st0{fill:#FFFFFF;}
	.st1{fill:#FEC111;}
	.st2{fill:#FCC015;}
</style>
<g>
	<g>
		<g id="XMLID_8_">
			<g>
				<path d="M-767.7-953.4c-5.6,6.1-10.8,12.1-15.6,19c-28.1-30.7-70.6-48.9-121.6-48.9h-93.9v308.2h93.9
					c50.6,0,93.1-18.2,121.2-49.3c4.8,6.9,9.5,13,15.2,19c-32.5,33.3-79.7,52.8-136.4,52.8h-118.6v-353.2h118.6
					C-847.8-1005.8-800.6-986.3-767.7-953.4z"/>
			</g>
			<g>
			</g>
		</g>
	</g>
</g>
<g>
	<path d="M-1044.9-652.6h-24.4v-353h24.4V-652.6z"/>
</g>
<g id="XMLID_7_">
	<g>
		<path d="M9.1-1087c-5.2,8.7-10.4,17.3-15.6,25.5c-16.9,7.4-32.5,16.9-47.2,28.1c17.7-19.5,33.8-41.6,47.6-65.8L9.1-1087z"/>
		<path d="M-6.4-1061.5c-11.3,16.9-23.4,32.5-37.2,47.2c-16.9,12.6-32.9,26.8-49.8,41.6c-6.5,5.6-13,11.3-19.9,16.9
			c-19.5,12.6-39.8,23.4-61.5,32c-39.4,16-81.4,24.7-123.4,25.1c-37.2,0.9-74.5-5.2-110-18.6c-20.8-7.8-40.7-17.3-59.7-26.8
			c-2.2-3-5.2-6.1-8.2-9.1c3.5,1.3,6.9,3,10.4,4.8c21.2,10.8,42.9,21.6,64.9,29.9c70.1,26,142.4,25.5,198.7-1.3
			c27.3-13,51.9-32.5,75.3-52.8c28.1-16.9,52.4-37.2,73.2-60.6C-38.9-1044.6-23.3-1054.1-6.4-1061.5z"/>
		<path d="M-43.7-1014.3c-7.8,8.7-16,16.9-25.1,24.7c-14.3,12.6-29,23.8-44.6,33.8c6.9-5.6,13.4-11.3,19.9-16.9
			C-76.6-987.5-60.6-1001.7-43.7-1014.3z"/>
		<path d="M-135-967.5c3-1.7,5.6-3.5,8.2-5.2c-23.4,20.3-48,39.8-75.3,52.8c-56.3,26.8-128.6,27.3-198.7,1.3
			c-22.1-8.2-43.7-19-64.9-29.9c-3.5-1.7-6.9-3.5-10.4-4.8c-19.5-21.6-45-39-73.2-48.9c12.1,3,24.2,7.4,36.8,13
			c16,6.9,31.2,14.3,46.8,22.1c21.2,10.4,42.9,21.2,64.9,29.4C-314.2-905.2-213.4-922.1-135-967.5z"/>
		<path d="M-449.7-916.5c14.3,26,22.1,55.8,22.1,87.4c0,101.7-82.2,183.5-184,183.5s-184-81.8-184-183.5s82.2-184,184-184
			c22.1,0,42.9,3.9,62.3,10.8c-34.2-10.4-66.2-12.1-95.7-6.5l3.5,18.2c-1.3,0-2.2,0-3.5,0.4l0.9,3.5
			c-73.2,15.2-126.8,80.1-126.8,157.6c0,88.7,70.6,161,159.3,161s159.3-72.3,159.3-161c0-41.6-15.6-80.1-41.6-108.7
			c6.5,2.6,12.6,5.6,18.6,8.7c8.2,4.3,16.9,8.2,25.5,12.1V-916.5z"/>
		<path d="M-467.9-944.2c-2.6-1.3-4.8-2.2-7.4-3.5c-15.2-7.4-30.3-15.2-45.9-21.6c-25.5-10.8-49.8-17.7-72.7-19.9
			c-5.6-0.4-11.7-0.9-17.7-0.9c-6.9,0-13.9,0.4-20.8,1.7c-3,0-6.1,0.4-8.7,0.9l-0.4-3c39-6.9,82.2-0.4,129,20.3
			c12.6,5.2,24.2,10.8,36.4,16.9C-473.1-950.2-470.1-947.2-467.9-944.2z"/>
		<path d="M-549.3-1002.2c28.1,10,53.7,27.3,73.2,48.9c-12.1-6.1-23.8-11.7-36.4-16.9c-46.8-20.8-90-27.3-129-20.3l-3.5-18.2
			C-615.5-1014.3-583.5-1012.6-549.3-1002.2z"/>
		<path d="M-641-987.5c2.6-0.4,5.6-0.9,8.7-0.9c-3.9,0-7.8,0.9-11.7,1.7l-0.9-3.5c1.3-0.4,2.2-0.4,3.5-0.4L-641-987.5z"/>
	</g>
	<g>
	</g>
</g>
<g>
	<path d="M-1092.5-1003.8v20.2h-97.1v331.9h-23.4v-331.9h-70.6v-20.2h70.6v-165.5c0-49.8,31.7-83.1,78.4-83.1
		c12.4,0,29,2.1,45.7,6.7l-4.1,19.7c-13-2.6-27.5-4.7-38.4-4.7c-35.3,0-58.1,24.4-58.1,61.3v165.5H-1092.5z"/>
</g>
<g>
	<path class="st0" d="M-1110.4-1121.2h59.4v20.5h-59.4v48.3h-22.1v-125.3h89.6v20.5h-67.5V-1121.2z"/>
	<path class="st0" d="M-1009.7-1052.4h-22.1v-125.3h22.1V-1052.4z"/>
	<path class="st0" d="M-878.1-1052.4h-17.3l-71.4-84.4v84.4h-22.1v-125.3h16.8l72.1,86.4v-86.4h21.9V-1052.4z"/>
	<path class="st0" d="M-810.3-1177.8c38.5,0,66.9,26.4,66.9,62.1c0,36.3-28.4,63.2-66.9,63.2h-47v-125.3H-810.3z M-810.3-1072.9
		c25.1,0,44.2-18.6,44.2-42.8c0-23.6-19.1-41.6-44.2-41.6h-24.9v84.4H-810.3z"/>
	<path class="st0" d="M-706.1-1052.4h-22.1v-125.3h22.1V-1052.4z"/>
	<path class="st0" d="M-574.6-1052.4h-17.3l-71.4-84.4v84.4h-22.1v-125.3h16.8l72.1,86.4v-86.4h21.9V-1052.4z"/>
	<path class="st0" d="M-429.6-1052.4h-17.3l-1.5-19.9c-8.8,13.8-23.4,22.5-44,22.5c-37.6,0-65.1-29.1-65.1-63.6
		c0-39.4,29.5-66.9,66-66.9c26.9,0,53.1,14.9,60.6,45.7h-23.6c-6.6-19-23.4-24.5-36.7-24.5c-25.3,0-43.9,17.9-43.9,45.7
		c0,22.7,16.8,42.2,42.6,42.2c20.6,0,33.9-12.3,38.5-29.5h-40.2v-20.5h64.5v6.1V-1052.4z"/>
</g>
<g>
	<g>
		<g id="XMLID_9_">
			<g>
				<path class="st0" d="M726.4-953.4c-5.6,6.1-10.8,12.1-15.6,19c-28.1-30.7-70.6-48.9-121.6-48.9h-93.9v308.2h93.9
					c50.6,0,93.1-18.2,121.2-49.3c4.8,6.9,9.5,13,15.2,19c-32.5,33.3-79.7,52.8-136.4,52.8H470.6v-353.2h118.6
					C646.4-1005.8,693.5-986.3,726.4-953.4z"/>
			</g>
			<g>
			</g>
		</g>
	</g>
</g>
<g>
	<path class="st0" d="M449.2-652.6h-24.4v-353h24.4V-652.6z"/>
</g>
<g id="XMLID_3_">
	<g>
		<path class="st0" d="M1503.3-1087c-5.2,8.7-10.4,17.3-15.6,25.5c-16.9,7.4-32.5,16.9-47.2,28.1c17.7-19.5,33.8-41.6,47.6-65.8
			L1503.3-1087z"/>
		<path class="st0" d="M1487.7-1061.5c-11.3,16.9-23.4,32.5-37.2,47.2c-16.9,12.6-32.9,26.8-49.8,41.6c-6.5,5.6-13,11.3-19.9,16.9
			c-19.5,12.6-39.8,23.4-61.5,32c-39.4,16-81.4,24.7-123.4,25.1c-37.2,0.9-74.5-5.2-110-18.6c-20.8-7.8-40.7-17.3-59.7-26.8
			c-2.2-3-5.2-6.1-8.2-9.1c3.5,1.3,6.9,3,10.4,4.8c21.2,10.8,42.9,21.6,64.9,29.9c70.1,26,142.4,25.5,198.7-1.3
			c27.3-13,51.9-32.5,75.3-52.8c28.1-16.9,52.4-37.2,73.2-60.6C1455.2-1044.6,1470.8-1054.1,1487.7-1061.5z"/>
		<path class="st0" d="M1450.5-1014.3c-7.8,8.7-16,16.9-25.1,24.7c-14.3,12.6-29,23.8-44.6,33.8c6.9-5.6,13.4-11.3,19.9-16.9
			C1417.6-987.5,1433.6-1001.7,1450.5-1014.3z"/>
		<path class="st0" d="M1359.1-967.5c3-1.7,5.6-3.5,8.2-5.2c-23.4,20.3-48,39.8-75.3,52.8c-56.3,26.8-128.6,27.3-198.7,1.3
			c-22.1-8.2-43.7-19-64.9-29.9c-3.5-1.7-6.9-3.5-10.4-4.8c-19.5-21.6-45-39-73.2-48.9c12.1,3,24.2,7.4,36.8,13
			c16,6.9,31.2,14.3,46.8,22.1c21.2,10.4,42.9,21.2,64.9,29.4C1179.9-905.2,1280.8-922.1,1359.1-967.5z"/>
		<path class="st0" d="M1044.4-916.5c14.3,26,22.1,55.8,22.1,87.4c0,101.7-82.2,183.5-184,183.5s-184-81.8-184-183.5
			s82.2-184,184-184c22.1,0,42.9,3.9,62.3,10.8c-34.2-10.4-66.2-12.1-95.7-6.5l3.5,18.2c-1.3,0-2.2,0-3.5,0.4l0.9,3.5
			c-73.2,15.2-126.8,80.1-126.8,157.6c0,88.7,70.6,161,159.3,161s159.3-72.3,159.3-161c0-41.6-15.6-80.1-41.6-108.7
			c6.5,2.6,12.6,5.6,18.6,8.7c8.2,4.3,16.9,8.2,25.5,12.1V-916.5z"/>
		<path class="st0" d="M1026.3-944.2c-2.6-1.3-4.8-2.2-7.4-3.5c-15.2-7.4-30.3-15.2-45.9-21.6c-25.5-10.8-49.8-17.7-72.7-19.9
			c-5.6-0.4-11.7-0.9-17.7-0.9c-6.9,0-13.9,0.4-20.8,1.7c-3,0-6.1,0.4-8.7,0.9l-0.4-3c39-6.9,82.2-0.4,129,20.3
			c12.6,5.2,24.2,10.8,36.4,16.9C1021.1-950.2,1024.1-947.2,1026.3-944.2z"/>
		<path class="st0" d="M944.9-1002.2c28.1,10,53.7,27.3,73.2,48.9c-12.1-6.1-23.8-11.7-36.4-16.9c-46.8-20.8-90-27.3-129-20.3
			l-3.5-18.2C878.6-1014.3,910.7-1012.6,944.9-1002.2z"/>
		<path class="st0" d="M853.1-987.5c2.6-0.4,5.6-0.9,8.7-0.9c-3.9,0-7.8,0.9-11.7,1.7l-0.9-3.5c1.3-0.4,2.2-0.4,3.5-0.4L853.1-987.5
			z"/>
	</g>
	<g>
	</g>
</g>
<g>
	<path class="st0" d="M401.7-1003.8v20.2h-97.1v331.9h-23.4v-331.9h-70.6v-20.2h70.6v-165.5c0-49.8,31.7-83.1,78.4-83.1
		c12.4,0,29,2.1,45.7,6.7l-4.1,19.7c-13-2.6-27.5-4.7-38.4-4.7c-35.3,0-58.1,24.4-58.1,61.3v165.5H401.7z"/>
</g>
<g>
	<path class="st0" d="M383.7-1121.2h59.4v20.5h-59.4v48.3h-22.1v-125.3h89.6v20.5h-67.5V-1121.2z"/>
	<path class="st0" d="M484.4-1052.4h-22.1v-125.3h22.1V-1052.4z"/>
	<path class="st0" d="M616-1052.4h-17.3l-71.4-84.4v84.4h-22.1v-125.3h16.8l72.1,86.4v-86.4H616V-1052.4z"/>
	<path class="st0" d="M683.8-1177.8c38.5,0,66.9,26.4,66.9,62.1c0,36.3-28.4,63.2-66.9,63.2h-47v-125.3H683.8z M683.8-1072.9
		c25.1,0,44.2-18.6,44.2-42.8c0-23.6-19.1-41.6-44.2-41.6h-24.9v84.4H683.8z"/>
	<path class="st0" d="M788-1052.4h-22.1v-125.3H788V-1052.4z"/>
	<path class="st0" d="M919.6-1052.4h-17.3l-71.4-84.4v84.4h-22.1v-125.3h16.8l72.1,86.4v-86.4h21.9V-1052.4z"/>
	<path class="st0" d="M1064.6-1052.4h-17.3l-1.5-19.9c-8.8,13.8-23.4,22.5-44,22.5c-37.6,0-65.1-29.1-65.1-63.6
		c0-39.4,29.5-66.9,66-66.9c26.9,0,53.1,14.9,60.6,45.7h-23.6c-6.6-19-23.4-24.5-36.7-24.5c-25.3,0-43.9,17.9-43.9,45.7
		c0,22.7,16.8,42.2,42.6,42.2c20.6,0,33.9-12.3,38.5-29.5h-40.2v-20.5h64.5v6.1V-1052.4z"/>
</g>
<g>
	<g>
		<g id="XMLID_11_">
			<g>
				<path class="st1" d="M1666.4-1901.6c-5.6,6.1-10.8,12.1-15.6,19c-28.1-30.7-70.6-48.9-121.6-48.9h-93.9v308.2h93.9
					c50.6,0,93.1-18.2,121.2-49.3c4.8,6.9,9.5,13,15.2,19c-32.5,33.3-79.7,52.8-136.4,52.8h-118.6V-1954h118.6
					C1586.4-1954,1633.5-1934.5,1666.4-1901.6z"/>
			</g>
			<g>
			</g>
		</g>
	</g>
</g>
<g>
	<path class="st1" d="M1389.2-1600.8h-24.4v-353h24.4V-1600.8z"/>
</g>
<g id="XMLID_10_">
	<g>
		<path class="st1" d="M2443.3-2035.2c-5.2,8.7-10.4,17.3-15.6,25.5c-16.9,7.4-32.5,16.9-47.2,28.1c17.7-19.5,33.8-41.6,47.6-65.8
			L2443.3-2035.2z"/>
		<path class="st1" d="M2427.7-2009.7c-11.3,16.9-23.4,32.5-37.2,47.2c-16.9,12.6-32.9,26.8-49.8,41.6c-6.5,5.6-13,11.3-19.9,16.9
			c-19.5,12.6-39.8,23.4-61.5,32c-39.4,16-81.4,24.7-123.4,25.1c-37.2,0.9-74.5-5.2-110-18.6c-20.8-7.8-40.7-17.3-59.7-26.8
			c-2.2-3-5.2-6.1-8.2-9.1c3.5,1.3,6.9,3,10.4,4.8c21.2,10.8,42.9,21.6,64.9,29.9c70.1,26,142.4,25.5,198.7-1.3
			c27.3-13,51.9-32.5,75.3-52.8c28.1-16.9,52.4-37.2,73.2-60.6C2395.2-1992.8,2410.8-2002.3,2427.7-2009.7z"/>
		<path class="st1" d="M2390.5-1962.5c-7.8,8.7-16,16.9-25.1,24.7c-14.3,12.6-29,23.8-44.6,33.8c6.9-5.6,13.4-11.3,19.9-16.9
			C2357.6-1935.7,2373.6-1949.9,2390.5-1962.5z"/>
		<path class="st1" d="M2299.1-1915.7c3-1.7,5.6-3.5,8.2-5.2c-23.4,20.3-48,39.8-75.3,52.8c-56.3,26.8-128.6,27.3-198.7,1.3
			c-22.1-8.2-43.7-19-64.9-29.9c-3.5-1.7-6.9-3.5-10.4-4.8c-19.5-21.6-45-39-73.2-48.9c12.1,3,24.2,7.4,36.8,13
			c16,6.9,31.2,14.3,46.8,22.1c21.2,10.4,42.9,21.2,64.9,29.4C2119.9-1853.4,2220.8-1870.3,2299.1-1915.7z"/>
		<path class="st1" d="M1984.4-1864.7c14.3,26,22.1,55.8,22.1,87.4c0,101.7-82.2,183.5-184,183.5s-184-81.8-184-183.5
			s82.2-184,184-184c22.1,0,42.9,3.9,62.3,10.8c-34.2-10.4-66.2-12.1-95.7-6.5l3.5,18.2c-1.3,0-2.2,0-3.5,0.4l0.9,3.5
			c-73.2,15.2-126.8,80.1-126.8,157.6c0,88.7,70.6,161,159.3,161s159.3-72.3,159.3-161c0-41.6-15.6-80.1-41.6-108.7
			c6.5,2.6,12.6,5.6,18.6,8.7c8.2,4.3,16.9,8.2,25.5,12.1V-1864.7z"/>
		<path class="st1" d="M1966.3-1892.4c-2.6-1.3-4.8-2.2-7.4-3.5c-15.2-7.4-30.3-15.2-45.9-21.6c-25.5-10.8-49.8-17.7-72.7-19.9
			c-5.6-0.4-11.7-0.9-17.7-0.9c-6.9,0-13.9,0.4-20.8,1.7c-3,0-6.1,0.4-8.7,0.9l-0.4-3c39-6.9,82.2-0.4,129,20.3
			c12.6,5.2,24.2,10.8,36.4,16.9C1961.1-1898.4,1964.1-1895.4,1966.3-1892.4z"/>
		<path class="st1" d="M1884.9-1950.4c28.1,10,53.7,27.3,73.2,48.9c-12.1-6.1-23.8-11.7-36.4-16.9c-46.8-20.8-90-27.3-129-20.3
			l-3.5-18.2C1818.6-1962.5,1850.7-1960.8,1884.9-1950.4z"/>
		<path class="st1" d="M1793.1-1935.7c2.6-0.4,5.6-0.9,8.7-0.9c-3.9,0-7.8,0.9-11.7,1.7l-0.9-3.5c1.3-0.4,2.2-0.4,3.5-0.4
			L1793.1-1935.7z"/>
	</g>
	<g>
	</g>
</g>
<g>
	<path class="st2" d="M1341.7-1952v20.2h-97.1v331.9h-23.4v-331.9h-70.6v-20.2h70.6v-165.5c0-49.8,31.7-83.1,78.4-83.1
		c12.4,0,29,2.1,45.7,6.7l-4.1,19.7c-13-2.6-27.5-4.7-38.4-4.7c-35.3,0-58.1,24.4-58.1,61.3v165.5H1341.7z"/>
</g>
<g>
	<path d="M1323.7-2069.4h59.4v20.5h-59.4v48.3h-22.1V-2126h89.6v20.5h-67.5V-2069.4z"/>
	<path d="M1424.4-2000.6h-22.1V-2126h22.1V-2000.6z"/>
	<path d="M1556-2000.6h-17.3l-71.4-84.4v84.4h-22.1V-2126h16.8l72.1,86.4v-86.4h21.9V-2000.6z"/>
	<path d="M1623.8-2126c38.5,0,66.9,26.4,66.9,62.1c0,36.3-28.4,63.2-66.9,63.2h-47V-2126H1623.8z M1623.8-2021.1
		c25.1,0,44.2-18.6,44.2-42.8c0-23.6-19.2-41.6-44.2-41.6h-24.9v84.4H1623.8z"/>
	<path d="M1728-2000.6h-22.1V-2126h22.1V-2000.6z"/>
	<path d="M1859.6-2000.6h-17.3l-71.4-84.4v84.4h-22.1V-2126h16.8l72.1,86.4v-86.4h21.9V-2000.6z"/>
	<path d="M2004.6-2000.6h-17.3l-1.5-19.9c-8.8,13.8-23.4,22.5-44,22.5c-37.6,0-65.1-29.1-65.1-63.6c0-39.4,29.5-66.9,66-66.9
		c26.9,0,53.1,14.9,60.6,45.7h-23.6c-6.6-19-23.4-24.5-36.7-24.5c-25.3,0-43.9,17.9-43.9,45.7c0,22.7,16.8,42.2,42.6,42.2
		c20.6,0,33.9-12.3,38.5-29.5h-40.2v-20.5h64.5v6.1V-2000.6z"/>
</g>
<g>
	<g>
		<g>
			<g>
				<g id="XMLID_5_">
					<g>
						<path class="st1" d="M929.7,119.3c-2.1,2.2-4,4.4-5.7,7c-10.3-11.3-25.8-17.9-44.6-17.9H845v112.9h34.4
							c18.6,0,34.1-6.7,44.4-18.1c1.7,2.5,3.5,4.8,5.5,7c-11.9,12.2-29.2,19.3-49.9,19.3h-43.4V100.1h43.4
							C900.3,100.1,917.6,107.3,929.7,119.3z"/>
					</g>
					<g>
					</g>
				</g>
			</g>
		</g>
		<g>
			<path class="st1" d="M828.1,229.5h-8.9V100.2h8.9V229.5z"/>
		</g>
		<g id="XMLID_4_">
			<g>
				<path class="st1" d="M1214.2,70.4c-1.9,3.2-3.8,6.3-5.7,9.4c-6.2,2.7-11.9,6.2-17.3,10.3c6.5-7.1,12.4-15.2,17.4-24.1
					L1214.2,70.4z"/>
				<path class="st1" d="M1208.5,79.7c-4.1,6.2-8.6,11.9-13.6,17.3c-6.2,4.6-12.1,9.8-18.2,15.2c-2.4,2.1-4.8,4.1-7.3,6.2
					c-7.1,4.6-14.6,8.6-22.5,11.7c-14.4,5.9-29.8,9-45.2,9.2c-13.6,0.3-27.3-1.9-40.3-6.8c-7.6-2.9-14.9-6.3-21.9-9.8
					c-0.8-1.1-1.9-2.2-3-3.3c1.3,0.5,2.5,1.1,3.8,1.7c7.8,4,15.7,7.9,23.8,10.9c25.7,9.5,52.2,9.4,72.8-0.5
					c10-4.8,19-11.9,27.6-19.3c10.3-6.2,19.2-13.6,26.8-22.2C1196.6,85.9,1202.3,82.4,1208.5,79.7z"/>
				<path class="st1" d="M1194.9,97c-2.9,3.2-5.9,6.2-9.2,9c-5.2,4.6-10.6,8.7-16.3,12.4c2.5-2.1,4.9-4.1,7.3-6.2
					C1182.8,106.9,1188.7,101.6,1194.9,97z"/>
				<path class="st1" d="M1161.4,114.2c1.1-0.6,2.1-1.3,3-1.9c-8.6,7.5-17.6,14.6-27.6,19.3c-20.6,9.8-47.1,10-72.8,0.5
					c-8.1-3-16-7-23.8-10.9c-1.3-0.6-2.5-1.3-3.8-1.7c-7.1-7.9-16.5-14.3-26.8-17.9c4.4,1.1,8.9,2.7,13.5,4.8
					c5.9,2.5,11.4,5.2,17.1,8.1c7.8,3.8,15.7,7.8,23.8,10.8C1095.8,137,1132.7,130.8,1161.4,114.2z"/>
				<path class="st1" d="M1046.1,132.9c5.2,9.5,8.1,20.5,8.1,32c0,37.3-30.1,67.2-67.4,67.2c-37.3,0-67.4-30-67.4-67.2
					s30.1-67.4,67.4-67.4c8.1,0,15.7,1.4,22.8,4c-12.5-3.8-24.3-4.4-35-2.4l1.3,6.7c-0.5,0-0.8,0-1.3,0.2l0.3,1.3
					c-26.8,5.5-46.5,29.3-46.5,57.7c0,32.5,25.8,59,58.4,59s58.4-26.5,58.4-59c0-15.2-5.7-29.3-15.2-39.8c2.4,1,4.6,2.1,6.8,3.2
					c3,1.6,6.2,3,9.4,4.4V132.9z"/>
				<path class="st1" d="M1039.5,122.7c-1-0.5-1.7-0.8-2.7-1.3c-5.5-2.7-11.1-5.5-16.8-7.9c-9.4-4-18.2-6.5-26.6-7.3
					c-2.1-0.2-4.3-0.3-6.5-0.3c-2.5,0-5.1,0.2-7.6,0.6c-1.1,0-2.2,0.2-3.2,0.3l-0.2-1.1c14.3-2.5,30.1-0.2,47.3,7.5
					c4.6,1.9,8.9,4,13.3,6.2C1037.6,120.5,1038.7,121.6,1039.5,122.7z"/>
				<path class="st1" d="M1009.7,101.5c10.3,3.6,19.7,10,26.8,17.9c-4.4-2.2-8.7-4.3-13.3-6.2c-17.1-7.6-33-10-47.3-7.5l-1.3-6.7
					C985.4,97,997.1,97.7,1009.7,101.5z"/>
				<path class="st1" d="M976.1,106.9c1-0.2,2.1-0.3,3.2-0.3c-1.4,0-2.9,0.3-4.3,0.6l-0.3-1.3c0.5-0.2,0.8-0.2,1.3-0.2L976.1,106.9z
					"/>
			</g>
			<g>
			</g>
		</g>
		<g>
			<path class="st2" d="M810.7,100.9v7.4h-35.6v121.6h-8.6V108.3h-25.9v-7.4h25.9V40.2c0-18.3,11.6-30.4,28.7-30.4
				c4.6,0,10.6,0.8,16.7,2.5l-1.5,7.2c-4.8-0.9-10.1-1.7-14.1-1.7c-12.9,0-21.3,8.9-21.3,22.4v60.6H810.7z"/>
		</g>
	</g>
	<g>
		<path class="st0" d="M29.2,158.9h59.4v20.5H29.2v48.3H7.1V102.4h89.6v20.5H29.2V158.9z"/>
		<path class="st0" d="M129.9,227.7h-22.1V102.4h22.1V227.7z"/>
		<path class="st0" d="M261.5,227.7h-17.3l-71.4-84.4v84.4h-22.1V102.4h16.8l72.1,86.4v-86.4h21.9V227.7z"/>
		<path class="st0" d="M329.3,102.4c38.5,0,66.9,26.4,66.9,62.1c0,36.3-28.4,63.2-66.9,63.2h-47V102.4H329.3z M329.3,207.2
			c25.1,0,44.2-18.6,44.2-42.8c0-23.6-19.1-41.6-44.2-41.6h-24.9v84.4H329.3z"/>
		<path class="st0" d="M433.5,227.7h-22.1V102.4h22.1V227.7z"/>
		<path class="st0" d="M565,227.7h-17.3l-71.4-84.4v84.4h-22.1V102.4h16.8l72.1,86.4v-86.4H565V227.7z"/>
		<path class="st0" d="M710,227.7h-17.3l-1.5-19.9c-8.8,13.8-23.4,22.5-44,22.5c-37.6,0-65.1-29.1-65.1-63.6
			c0-39.4,29.5-66.9,66-66.9c26.9,0,53.1,14.9,60.6,45.7h-23.6c-6.6-19-23.4-24.5-36.7-24.5c-25.3,0-43.9,17.9-43.9,45.7
			c0,22.7,16.8,42.2,42.6,42.2c20.6,0,33.9-12.3,38.5-29.5h-40.2v-20.5H710v6.1V227.7z"/>
	</g>
</g>
<g>
	<path d="M1250.5-1483.2h-7.6v-22h-22.4v-7.3h22.4v-22h7.6v22h22.2v7.3h-22.2V-1483.2z"/>
	<path d="M1338.9-1512.4h39.7v7.5h-39.7v32.7h-8.1v-77.2h52.7v7.4h-44.6V-1512.4z"/>
	<path d="M1440.6-1500.3v28h-8.1v-77.2h28.7c17.2,0,29.4,9.4,29.4,24.6c0,12.4-8.2,21-20.7,23.6l23.9,28.9h-10.1l-23.1-28H1440.6z
		 M1461.1-1507.6c12.6,0,21.6-6.5,21.6-17.1c0-10.8-9-17.2-21.6-17.2h-20.4v34.4H1461.1z"/>
	<path d="M1550-1472.2h-8.1v-77.2h8.1V-1472.2z"/>
	<path d="M1613.8-1514.3h41v7.5h-41v27.2h45.5v7.4h-53.6v-77.2h53.6v7.4h-45.5V-1514.3z"/>
	<path d="M1776.9-1472.2h-6.9l-50.4-62.5v62.5h-8.1v-77.2h6.6l50.7,63.3v-63.3h8.1V-1472.2z"/>
	<path d="M1859.5-1549.4c23.8,0,40.6,15.8,40.6,38c0,23-16.8,39.2-40.6,39.2h-26.8v-77.2H1859.5z M1859.5-1479.6
		c19,0,32.3-13.2,32.3-31.8c0-17.8-13.4-30.6-32.3-30.6h-18.7v62.4H1859.5z"/>
	<path d="M2007.6-1528.5h-7.9c-1.8-9.4-8.6-15.5-21.7-15.5c-11.7,0-19.4,5.7-19.4,14.6c0,7,5.7,11.3,15.9,13.2l11.7,2.3
		c13.6,2.6,21.4,9.1,21.4,20.1c0,14.1-11.5,23.4-28.7,23.4c-18.5,0-30.3-9.6-32.1-26.3h7.9c1.9,12,10.3,19.1,24.5,19.1
		c12.3,0,20.1-6,20.1-15.2c0-6.5-4.4-11.3-14.5-13.2l-13.4-2.6c-14.2-2.6-21.3-9.8-21.3-20.2c0-13.3,11-22.1,27.5-22.1
		C1993.1-1551.1,2005.7-1543.7,2007.6-1528.5z"/>
</g>
<g>
	<g>
		<g id="XMLID_2_">
			<g>
				<path class="st1" d="M-767.7-1901.6c-5.6,6.1-10.8,12.1-15.6,19c-28.1-30.7-70.6-48.9-121.6-48.9h-93.9v308.2h93.9
					c50.6,0,93.1-18.2,121.2-49.3c4.8,6.9,9.5,13,15.2,19c-32.5,33.3-79.7,52.8-136.4,52.8h-118.6V-1954h118.6
					C-847.8-1954-800.6-1934.5-767.7-1901.6z"/>
			</g>
			<g>
			</g>
		</g>
	</g>
</g>
<g>
	<path class="st1" d="M-1044.9-1600.8h-24.4v-353h24.4V-1600.8z"/>
</g>
<g id="XMLID_1_">
	<g>
		<path class="st1" d="M9.1-2035.2c-5.2,8.7-10.4,17.3-15.6,25.5c-16.9,7.4-32.5,16.9-47.2,28.1c17.7-19.5,33.8-41.6,47.6-65.8
			L9.1-2035.2z"/>
		<path class="st1" d="M-6.4-2009.7c-11.3,16.9-23.4,32.5-37.2,47.2c-16.9,12.6-32.9,26.8-49.8,41.6c-6.5,5.6-13,11.3-19.9,16.9
			c-19.5,12.6-39.8,23.4-61.5,32c-39.4,16-81.4,24.7-123.4,25.1c-37.2,0.9-74.5-5.2-110-18.6c-20.8-7.8-40.7-17.3-59.7-26.8
			c-2.2-3-5.2-6.1-8.2-9.1c3.5,1.3,6.9,3,10.4,4.8c21.2,10.8,42.9,21.6,64.9,29.9c70.1,26,142.4,25.5,198.7-1.3
			c27.3-13,51.9-32.5,75.3-52.8c28.1-16.9,52.4-37.2,73.2-60.6C-38.9-1992.8-23.3-2002.3-6.4-2009.7z"/>
		<path class="st1" d="M-43.7-1962.5c-7.8,8.7-16,16.9-25.1,24.7c-14.3,12.6-29,23.8-44.6,33.8c6.9-5.6,13.4-11.3,19.9-16.9
			C-76.6-1935.7-60.6-1949.9-43.7-1962.5z"/>
		<path class="st1" d="M-135-1915.7c3-1.7,5.6-3.5,8.2-5.2c-23.4,20.3-48,39.8-75.3,52.8c-56.3,26.8-128.6,27.3-198.7,1.3
			c-22.1-8.2-43.7-19-64.9-29.9c-3.5-1.7-6.9-3.5-10.4-4.8c-19.5-21.6-45-39-73.2-48.9c12.1,3,24.2,7.4,36.8,13
			c16,6.9,31.2,14.3,46.8,22.1c21.2,10.4,42.9,21.2,64.9,29.4C-314.2-1853.4-213.4-1870.3-135-1915.7z"/>
		<path class="st1" d="M-449.7-1864.7c14.3,26,22.1,55.8,22.1,87.4c0,101.7-82.2,183.5-184,183.5s-184-81.8-184-183.5
			s82.2-184,184-184c22.1,0,42.9,3.9,62.3,10.8c-34.2-10.4-66.2-12.1-95.7-6.5l3.5,18.2c-1.3,0-2.2,0-3.5,0.4l0.9,3.5
			c-73.2,15.2-126.8,80.1-126.8,157.6c0,88.7,70.6,161,159.3,161s159.3-72.3,159.3-161c0-41.6-15.6-80.1-41.6-108.7
			c6.5,2.6,12.6,5.6,18.6,8.7c8.2,4.3,16.9,8.2,25.5,12.1V-1864.7z"/>
		<path class="st1" d="M-467.9-1892.4c-2.6-1.3-4.8-2.2-7.4-3.5c-15.2-7.4-30.3-15.2-45.9-21.6c-25.5-10.8-49.8-17.7-72.7-19.9
			c-5.6-0.4-11.7-0.9-17.7-0.9c-6.9,0-13.9,0.4-20.8,1.7c-3,0-6.1,0.4-8.7,0.9l-0.4-3c39-6.9,82.2-0.4,129,20.3
			c12.6,5.2,24.2,10.8,36.4,16.9C-473.1-1898.4-470.1-1895.4-467.9-1892.4z"/>
		<path class="st1" d="M-549.3-1950.4c28.1,10,53.7,27.3,73.2,48.9c-12.1-6.1-23.8-11.7-36.4-16.9c-46.8-20.8-90-27.3-129-20.3
			l-3.5-18.2C-615.5-1962.5-583.5-1960.8-549.3-1950.4z"/>
		<path class="st1" d="M-641-1935.7c2.6-0.4,5.6-0.9,8.7-0.9c-3.9,0-7.8,0.9-11.7,1.7l-0.9-3.5c1.3-0.4,2.2-0.4,3.5-0.4L-641-1935.7
			z"/>
	</g>
	<g>
	</g>
</g>
<g>
	<path class="st2" d="M-1092.5-1952v20.2h-97.1v331.9h-23.4v-331.9h-70.6v-20.2h70.6v-165.5c0-49.8,31.7-83.1,78.4-83.1
		c12.4,0,29,2.1,45.7,6.7l-4.1,19.7c-13-2.6-27.5-4.7-38.4-4.7c-35.3,0-58.1,24.4-58.1,61.3v165.5H-1092.5z"/>
</g>
<g>
	<path class="st0" d="M-1110.4-2069.4h59.4v20.5h-59.4v48.3h-22.1V-2126h89.6v20.5h-67.5V-2069.4z"/>
	<path class="st0" d="M-1009.7-2000.6h-22.1V-2126h22.1V-2000.6z"/>
	<path class="st0" d="M-878.1-2000.6h-17.3l-71.4-84.4v84.4h-22.1V-2126h16.8l72.1,86.4v-86.4h21.9V-2000.6z"/>
	<path class="st0" d="M-810.3-2126c38.5,0,66.9,26.4,66.9,62.1c0,36.3-28.4,63.2-66.9,63.2h-47V-2126H-810.3z M-810.3-2021.1
		c25.1,0,44.2-18.6,44.2-42.8c0-23.6-19.1-41.6-44.2-41.6h-24.9v84.4H-810.3z"/>
	<path class="st0" d="M-706.1-2000.6h-22.1V-2126h22.1V-2000.6z"/>
	<path class="st0" d="M-574.6-2000.6h-17.3l-71.4-84.4v84.4h-22.1V-2126h16.8l72.1,86.4v-86.4h21.9V-2000.6z"/>
	<path class="st0" d="M-429.6-2000.6h-17.3l-1.5-19.9c-8.8,13.8-23.4,22.5-44,22.5c-37.6,0-65.1-29.1-65.1-63.6
		c0-39.4,29.5-66.9,66-66.9c26.9,0,53.1,14.9,60.6,45.7h-23.6c-6.6-19-23.4-24.5-36.7-24.5c-25.3,0-43.9,17.9-43.9,45.7
		c0,22.7,16.8,42.2,42.6,42.2c20.6,0,33.9-12.3,38.5-29.5h-40.2v-20.5h64.5v6.1V-2000.6z"/>
</g>
<text transform="matrix(1 0 0 1 -1226.9231 -1472.2258)" class="st0" style="font-family:'Campton-Light'; font-size:113.478px; letter-spacing:34;">+FRIENDS</text>
<g>
	<path d="M16.3-145.2H8.7v-22h-22.4v-7.3H8.7v-22h7.6v22h22.2v7.3H16.3V-145.2z"/>
	<path d="M104.7-174.4h39.7v7.5h-39.7v32.7h-8.1v-77.2h52.7v7.4h-44.6V-174.4z"/>
	<path d="M206.5-162.3v28h-8.1v-77.2h28.7c17.2,0,29.4,9.4,29.4,24.6c0,12.4-8.2,21-20.7,23.6l23.9,28.9h-10.1l-23.1-28H206.5z
		 M226.9-169.6c12.6,0,21.6-6.5,21.6-17.1c0-10.8-9-17.2-21.6-17.2h-20.4v34.4H226.9z"/>
	<path d="M315.9-134.2h-8.1v-77.2h8.1V-134.2z"/>
	<path d="M379.7-176.3h41v7.5h-41v27.2h45.5v7.4h-53.6v-77.2h53.6v7.4h-45.5V-176.3z"/>
	<path d="M542.8-134.2h-6.9l-50.4-62.5v62.5h-8.1v-77.2h6.6l50.7,63.3v-63.3h8.1V-134.2z"/>
	<path d="M625.4-211.4c23.8,0,40.6,15.8,40.6,38c0,23-16.8,39.2-40.6,39.2h-26.8v-77.2H625.4z M625.4-141.6
		c19,0,32.3-13.2,32.3-31.8c0-17.8-13.4-30.6-32.3-30.6h-18.7v62.4H625.4z"/>
	<path d="M773.5-190.5h-7.9c-1.8-9.4-8.6-15.5-21.7-15.5c-11.7,0-19.4,5.7-19.4,14.6c0,7,5.7,11.3,15.9,13.2L752-176
		c13.6,2.6,21.4,9.1,21.4,20.1c0,14.1-11.5,23.4-28.7,23.4c-18.5,0-30.3-9.6-32.1-26.3h7.9c1.9,12,10.3,19.1,24.5,19.1
		c12.3,0,20.1-6,20.1-15.2c0-6.5-4.4-11.3-14.5-13.2l-13.4-2.6c-14.2-2.6-21.3-9.8-21.3-20.2c0-13.3,11-22.1,27.5-22.1
		C758.9-213.1,771.5-205.7,773.5-190.5z"/>
</g>
<g>
	<path class="st0" d="M29.2,299h-5.5v-15.9H7.6v-5.2h16.2v-15.9h5.5v15.9h16.1v5.2H29.2V299z"/>
	<path class="st0" d="M161.3,277.9H190v5.4h-28.7V307h-5.8v-55.8h38v5.3h-32.2V277.9z"/>
	<path class="st0" d="M303.1,286.7V307h-5.8v-55.8H318c12.5,0,21.2,6.8,21.2,17.8c0,8.9-5.9,15.2-14.9,17.1l17.3,20.9h-7.3
		l-16.7-20.3H303.1z M317.9,281.4c9.1,0,15.6-4.7,15.6-12.4c0-7.8-6.5-12.5-15.6-12.5h-14.8v24.8H317.9z"/>
	<path class="st0" d="M450.4,307h-5.8v-55.8h5.8V307z"/>
	<path class="st0" d="M564.7,276.5h29.6v5.4h-29.6v19.7h32.9v5.3h-38.7v-55.8h38.7v5.3h-32.9V276.5z"/>
	<path class="st0" d="M750.8,307h-5l-36.4-45.2V307h-5.8v-55.8h4.8l36.7,45.8v-45.8h5.8V307z"/>
	<path class="st0" d="M878.7,251.2c17.2,0,29.4,11.4,29.4,27.5c0,16.6-12.1,28.3-29.4,28.3h-19.4v-55.8H878.7z M878.7,301.6
		c13.7,0,23.4-9.5,23.4-23c0-12.9-9.7-22.1-23.4-22.1h-13.5v45.1H878.7z"/>
	<path class="st0" d="M1053.9,266.3h-5.7c-1.3-6.8-6.2-11.2-15.7-11.2c-8.4,0-14,4.1-14,10.6c0,5.1,4.1,8.2,11.5,9.5l8.4,1.6
		c9.8,1.9,15.5,6.6,15.5,14.5c0,10.2-8.3,16.9-20.7,16.9c-13.4,0-21.9-7-23.2-19h5.7c1.4,8.7,7.5,13.8,17.7,13.8
		c8.9,0,14.5-4.3,14.5-11c0-4.7-3.2-8.2-10.5-9.5l-9.7-1.9c-10.3-1.9-15.4-7.1-15.4-14.6c0-9.6,8-16,19.8-16
		C1043.4,250,1052.5,255.3,1053.9,266.3z"/>
</g>
<text transform="matrix(1 0 0 1 -129.4937 -287.012)" class="st0" style="font-family:'Campton-Light'; font-size:82px; letter-spacing:92;">+FRIENDS</text>
</svg>
